<svg width="40" height="41" viewBox="0 0 40 41" fill="none" xmlns="http://www.w3.org/2000/svg">
<g id="tabler:businessplan">
<g id="Group">
<path id="Vector" d="M26.6668 15.375C31.2692 15.375 35.0002 13.0805 35.0002 10.25C35.0002 7.41954 31.2692 5.125 26.6668 5.125C22.0645 5.125 18.3335 7.41954 18.3335 10.25C18.3335 13.0805 22.0645 15.375 26.6668 15.375Z" stroke="white" stroke-width="2" stroke-linecap="round" stroke-linejoin="round"/>
<path id="Vector_2" d="M18.3335 10.25V17.0833C18.3335 19.914 22.0652 22.2083 26.6668 22.2083C31.2685 22.2083 35.0002 19.914 35.0002 17.0833V10.25" stroke="white" stroke-width="2" stroke-linecap="round" stroke-linejoin="round"/>
<path id="Vector_3" d="M18.3335 17.0834V23.9167C18.3335 26.7474 22.0652 29.0417 26.6668 29.0417C31.2685 29.0417 35.0002 26.7474 35.0002 23.9167V17.0834" stroke="white" stroke-width="2" stroke-linecap="round" stroke-linejoin="round"/>
<path id="Vector_4" d="M18.3335 23.9166V30.75C18.3335 33.5807 22.0652 35.875 26.6668 35.875C31.2685 35.875 35.0002 33.5807 35.0002 30.75V23.9166" stroke="white" stroke-width="2" stroke-linecap="round" stroke-linejoin="round"/>
<path id="Vector_5" d="M11.6667 15.375H7.5C6.83696 15.375 6.20107 15.645 5.73223 16.1255C5.26339 16.6061 5 17.2579 5 17.9375C5 18.6171 5.26339 19.2689 5.73223 19.7495C6.20107 20.23 6.83696 20.5 7.5 20.5H9.16667C9.82971 20.5 10.4656 20.77 10.9344 21.2505C11.4033 21.7311 11.6667 22.3829 11.6667 23.0625C11.6667 23.7421 11.4033 24.3939 10.9344 24.8745C10.4656 25.355 9.82971 25.625 9.16667 25.625H5" stroke="white" stroke-width="2" stroke-linecap="round" stroke-linejoin="round"/>
<path id="Vector_6" d="M8.3335 13.6666V15.375M8.3335 25.625V27.3333V25.625Z" stroke="white" stroke-width="2" stroke-linecap="round" stroke-linejoin="round"/>
</g>
</g>
</svg>
