<svg width="48" height="48" viewBox="0 0 48 48" fill="none" xmlns="http://www.w3.org/2000/svg">
<g id="maki:gaming">
<path id="Vector" d="M41.9201 40C40.0001 40.96 37.4401 40.32 36.1601 38.4L32.6401 33.92H15.3601L11.8401 38.4C10.2401 40.64 7.36012 40.96 5.12012 39.36C3.52012 38.08 2.88012 36.16 3.20012 34.56L5.44012 22.72C6.08012 18.88 9.60012 16 13.4401 16H22.4001V11.2C22.4001 8.64002 24.3201 6.40002 26.8801 6.40002H36.8001C37.7601 6.40002 38.4001 7.04002 38.4001 8.00002C38.4001 8.96002 37.7601 9.60002 36.8001 9.60002H27.2001C26.2401 9.60002 25.6001 10.24 25.6001 10.88V16H34.5601C38.4001 16 41.9201 18.88 42.5601 22.72L44.8001 34.56C45.1201 36.8 44.1601 39.04 41.9201 40ZM19.2001 24C19.2001 21.44 16.9601 19.2 14.4001 19.2C11.8401 19.2 9.60012 21.44 9.60012 24C9.60012 26.56 11.8401 28.8 14.4001 28.8C16.9601 28.8 19.2001 26.56 19.2001 24ZM38.4001 24C38.4001 23.04 37.7601 22.4 36.8001 22.4H35.2001V20.8C35.2001 19.84 34.5601 19.2 33.6001 19.2C32.6401 19.2 32.0001 19.84 32.0001 20.8V22.4H30.4001C29.4401 22.4 28.8001 23.04 28.8001 24C28.8001 24.96 29.4401 25.6 30.4001 25.6H32.0001V27.2C32.0001 28.16 32.6401 28.8 33.6001 28.8C34.5601 28.8 35.2001 28.16 35.2001 27.2V25.6H36.8001C37.7601 25.6 38.4001 24.96 38.4001 24Z" fill="white"/>
</g>
</svg>
