<svg width="40" height="40" viewBox="0 0 40 40" fill="none" xmlns="http://www.w3.org/2000/svg">
<g id="akar-icons:vr-ar">
<g id="Group">
<path id="Vector" d="M3.3335 16.6667C3.3335 15.7827 3.68469 14.9348 4.30981 14.3097C4.93493 13.6846 5.78277 13.3334 6.66683 13.3334H33.3335C34.2176 13.3334 35.0654 13.6846 35.6905 14.3097C36.3156 14.9348 36.6668 15.7827 36.6668 16.6667V28.3334C36.6668 29.2174 36.3156 30.0653 35.6905 30.6904C35.0654 31.3155 34.2176 31.6667 33.3335 31.6667H26.8868C26.3112 31.6667 25.7454 31.5177 25.2445 31.2341C24.7436 30.9504 24.3247 30.542 24.0285 30.0484L21.4285 25.715C21.2803 25.4686 21.0709 25.2647 20.8206 25.1232C20.5703 24.9816 20.2877 24.9072 20.0002 24.9072C19.7126 24.9072 19.43 24.9816 19.1797 25.1232C18.9294 25.2647 18.72 25.4686 18.5718 25.715L15.9718 30.0484C15.6757 30.542 15.2567 30.9504 14.7558 31.2341C14.2549 31.5177 13.6891 31.6667 13.1135 31.6667H6.66683C5.78277 31.6667 4.93493 31.3155 4.30981 30.6904C3.68469 30.0653 3.3335 29.2174 3.3335 28.3334V16.6667Z" stroke="white" stroke-width="2" stroke-linecap="round" stroke-linejoin="round"/>
<path id="Vector_2" d="M6.355 11.3017C6.96364 10.3889 7.78818 9.64034 8.75545 9.12254C9.72273 8.60474 10.8028 8.33367 11.9 8.33337H28.0967C29.1941 8.33339 30.2746 8.60433 31.2421 9.12214C32.2097 9.63995 33.0345 10.3886 33.6433 11.3017L35 13.3334H5L6.355 11.3017V11.3017Z" stroke="white" stroke-width="2" stroke-linecap="round" stroke-linejoin="round"/>
</g>
</g>
</svg>
